# AST/ASF file generated using VICON BodyLanguage
# -----------------------------------------------
:version 1.10
:name VICON
:units
  mass 1.0
  length 0.45
  angle deg
:documentation
   .ast/.asf automatically generated from VICON data using
   VICON BodyBuilder and BodyLanguage model FoxedUp or BRILLIANT.MOD
:root
   order TX TY TZ RX RY RZ
   axis XYZ
   position 0 0 0  
   orientation 0 0 0 
:bonedata
  begin
     id 1 
     name lhipjoint
     direction 0.734343 -0.627749 0.258209 
     length 2.5437 
     axis 0 0 0  XYZ
  end
  begin
     id 2 
     name lfemur
     direction 0.34202 -0.939693 0  
     length 6.7391  
     axis 0 0 20  XYZ
    dof rx ry rz
    limits (-160.0 20.0)
           (-70.0 70.0)
           (-60.0 70.0)
  end
  begin
     id 3 
     name ltibia
     direction 0.34202 -0.939693 0   
     length 7.21536   
     axis 0 0 20   XYZ
    dof rx
    limits (-10.0 170.0)
  end
  begin
     id 4 
     name lfoot
     direction 0.0489572 -0.134509 0.989702   
     length 1.61313   
     axis -90 7.62852e-016 20   XYZ
    dof rx rz
    limits (-45.0 90.0)
           (-70.0 20.0)
  end
  begin
     id 5 
     name ltoes
     direction 1.53451e-011 -4.21692e-011 1   
     length 0.823104   
     axis -90 7.62852e-016 20   XYZ
    dof rx
    limits (-90.0 20.0)
  end
  begin
     id 6 
     name rhipjoint
     direction -0.746398 -0.615468 0.253157   
     length 2.59446  
     axis 0 0 0  XYZ 
  end
  begin
     id 7 
     name rfemur
     direction -0.34202 -0.939693 0   
     length 6.7075   
     axis 0 0 -20   XYZ
    dof rx ry rz
    limits (-160.0 20.0)
           (-70.0 70.0)
           (-70.0 60.0)
  end
  begin
     id 8 
     name rtibia
     direction -0.34202 -0.939693 0   
     length 7.27262   
     axis 0 0 -20   XYZ
    dof rx
    limits (-10.0 170.0)
 end
 begin
     id 9 
     name rfoot
     direction -0.0455203 -0.125066 0.991104   
     length 1.91095  
     axis -90 -7.62852e-016 -20   XYZ
    dof rx rz
    limits (-45.0 90.0)
           (-20.0 70.0)
  end
  begin
     id 10 
     name rtoes
     direction -1.53601e-011 -4.21913e-011 1   
     length 0.969037   
     axis -90 -7.62852e-016 -20   XYZ
    dof rx
    limits (-90.0 20.0)
  end
  begin
     id 11 
     name lowerback
     direction 0.0181546 0.999122 -0.0377542   
     length 1.99916   
     axis 0 0 0   XYZ
    dof rx ry rz
    limits (-20.0 45.0)
           (-30.0 30.0)
           (-30.0 30.0)
  end
  begin
     id 12 
     name upperback
     direction 0.0203486 0.99589 0.0882534   
     length 1.951   
     axis 0 0 0   XYZ
    dof rx ry rz
    limits (-20.0 45.0)
           (-30.0 30.0)
           (-30.0 30.0)
  end
  begin
     id 13 
     name thorax
     direction 0.0131685 0.994241 0.106355   
     length 1.97461   
     axis 0 0 0   XYZ
    dof rx ry rz
    limits (-20.0 45.0)
           (-30.0 30.0)
           (-30.0 30.0)
  end
  begin
     id 14 
     name lowerneck
     direction -0.0281395 0.999325 0.023617   
     length 1.7959   
     axis 0 0 0   XYZ
    dof rx ry rz
    limits (-20.0 45.0)
           (-30.0 30.0)
           (-30.0 30.0)
  end
  begin
     id 15 
     name upperneck
     direction 0.0288721 0.991984 -0.123019   
     length 1.79917   
     axis 0 0 0   XYZ
    dof rx ry rz
    limits (-20.0 45.0)
           (-30.0 30.0)
           (-30.0 30.0)
  end
  begin
     id 16
     name head
     direction 0.0133797 0.998944 -0.0439492  
     length 1.80902  
     axis 0 0 0   XYZ
    dof rx ry rz
    limits (-20.0 45.0)
           (-30.0 30.0)
           (-30.0 30.0)
  end
  begin
     id 17 
     name lclavicle
     direction 0.919195 0.377107 0.113449  
     length 3.17815  
     axis 0 0 0   XYZ
    dof ry rz
    limits (-20.0 10.0)
           (0.0 20.0)
  end
  begin
     id 18 
     name lhumerus
     direction 1 -4.48959e-011 2.13129e-027   
     length 4.84137   
     axis 180 -30 -90   XYZ
    dof rx ry rz
    limits (-60.0 90.0)
           (-90.0 90.0)
           (-90.0 90.0)
  end
  begin
     id 19
     name lradius
     direction 1 -4.48957e-011 -6.30627e-028   
     length 3.2452   
     axis 180 -30 -90   XYZ
    dof rx
    limits (-10.0 170.0)
  end
  begin
     id 20
     name lwrist
     direction 1 -4.4901e-011 9.13299e-027   
     length 1.6226   
     axis -6.84618e-015 90 90   XYZ
    dof ry
    limits (-180.0 0.0)
 end
  begin
     id 21 
     name lhand
     direction 1 -4.48816e-011 1.82293e-026   
     length 0.521221   
     axis -1.16502e-014 90 90   XYZ
    dof rx rz
    limits (-90.0 90.0)
           (-45.0 45.0)
  end
  begin
     id 22 
     name lfingers
     direction 1 -4.49108e-011 3.65687e-026   
     length 0.420221   
     axis -2.33008e-014 90 90   XYZ
    dof rx
    limits (0.0 90.0)
  end
  begin
     id 23
     name lthumb
     direction 0.707107 -6.34943e-011 0.707107   
     length 0.603356   
     axis -90 45 5.69224e-014   XYZ
    dof rx rz
    limits (-45.0 45.0)
           (-45.0 45.0)
  end
  begin
     id 24 
     name rclavicle
     direction -0.90847 0.38596 0.160368   
     length 3.12973  
     axis 0 0 0   XYZ 
    dof ry rz
    limits (-10.0 20.0)
           (-20.0 0.0)
  end
  begin
     id 25 
     name rhumerus
     direction -1 -4.48974e-011 4.47268e-028  
     length 4.72284   
     axis 180 30 90   XYZ
    dof rx ry rz
    limits (-90.0 60.0)
           (-90.0 90.0)
           (-90.0 90.0)
  end
  begin
     id 26 
     name rradius
     direction -1 -4.48969e-011 3.43203e-027   
     length 3.23459   
     axis 180 30 90   XYZ
    dof rx
    limits (-10.0 170.0)
  end
  begin
     id 27 
     name rwrist
     direction -1 -4.48969e-011 9.12911e-027   
     length 1.6173   
     axis -6.84618e-015 -90 -90   XYZ
    dof ry
    limits (-180.0 0.0)
  end
  begin
     id 28
     name rhand
     direction -1 -4.49194e-011 1.83006e-026   
     length 0.307416   
     axis -1.16502e-014 -90 -90   XYZ
    dof rx rz
    limits (-90.0 90.0)
           (-45.0 45.0)
  end
  begin
     id 29
     name rfingers
     direction -1 -4.48423e-011 3.63103e-026   
     length 0.247847   
     axis -2.33008e-014 -90 -90   XYZ
    dof rx
    limits (0.0 90.0)
  end
  begin
     id 30
     name rthumb
     direction -0.707107 -6.34802e-011 0.707107   
     length 0.35586   
     axis -90 -45 -5.69224e-014   XYZ
    dof rx rz
    limits (-45.0 45.0)
           (-45.0 45.0)
  end
:hierarchy
  begin
    root lhipjoint rhipjoint lowerback
    lhipjoint lfemur
    lfemur ltibia
    ltibia lfoot
    lfoot ltoes
    rhipjoint rfemur
    rfemur rtibia
    rtibia rfoot
    rfoot rtoes
    lowerback upperback
    upperback thorax
    thorax lowerneck lclavicle rclavicle
    lowerneck upperneck
    upperneck head
    lclavicle lhumerus
    lhumerus lradius
    lradius lwrist
    lwrist lhand lthumb
    lhand lfingers
    rclavicle rhumerus
    rhumerus rradius
    rradius rwrist
    rwrist rhand rthumb
    rhand rfingers
  end

#!OML:ASF H:\Terrain\Patient Classification 1\Animal1\Tuesday\Animal1.ASF
:FULLY-SPECIFIED
:DEGREES
1
root 9.41678 16.0492 -23.2668 8.52773 10.1703 -0.774584
lowerback 7.39077 -1.56001 2.6694
upperback 6.97122 -1.94397 1.40341
thorax 3.04177 -0.886305 0.0461576
lowerneck -8.78778 -1.63531 -7.90803
upperneck -3.20252 -1.43974 9.99144
head 0.626018 -0.519499 4.25676
rclavicle -3.37934e-015 -3.57812e-015
rhumerus 1.42226 39.9995 -80.971
rradius 22.5244
rwrist -17.0425
rhand -21.4007 22.4895
rfingers 7.12502
rthumb 4.98741 -7.43177
lclavicle -3.37934e-015 -3.57812e-015
lhumerus -8.10217 -23.5679 88.4517
lradius 30.9482
lwrist -25.3455
lhand 0.424198 40.9195
lfingers 7.12502
lthumb 25.9966 69.1613
rfemur -23.3794 6.42313 26.1787
rtibia 28.5136
rfoot -12.7523 -35.348
rtoes 21.7399
lfemur -35.5435 1.19093 -21.7894
ltibia 29.8709
lfoot -8.69335 10.7461
ltoes -12.8357
2
root 9.41988 16.0608 -23.1988 8.63779 9.89609 -0.645605
lowerback 7.15087 -1.49329 2.40731
upperback 6.87511 -1.87511 1.35585
thorax 3.07999 -0.862184 0.134811
lowerneck -8.58501 -1.58461 -7.85872
upperneck -3.21539 -1.38837 9.79586
head 0.58176 -0.50194 4.19067
rclavicle 2.5842e-015 -2.78299e-014
rhumerus 1.24994 39.7806 -81.0343
rradius 22.3059
rwrist -17.0057
rhand -21.6588 23.1435
rfingers 7.12502
rthumb 4.73823 -6.78355
lclavicle 2.5842e-015 -2.78299e-014
lhumerus -8.18587 -23.4596 88.6476
lradius 31.2016
lwrist -26.0979
lhand 1.31479 41.1664
lfingers 7.12502
lthumb 26.8491 69.2801
rfemur -23.1404 6.39673 26.0957
rtibia 28.3542
rfoot -12.6558 -35.1569
rtoes 21.4525
lfemur -34.9465 -0.22921 -21.2147
ltibia 27.4704
lfoot -8.66246 12.2083
ltoes -12.8124
3
root 9.42383 16.0728 -23.1298 8.8037 9.66825 -0.505471
lowerback 6.80553 -1.44445 2.16852
upperback 6.82336 -1.83165 1.28193
thorax 3.22139 -0.847929 0.181567
lowerneck -8.60628 -1.61048 -7.86526
upperneck -3.14077 -1.42602 9.76035
head 0.609904 -0.520188 4.17924
rclavicle -1.98785e-015 -5.96354e-015
rhumerus 1.01164 40.0931 -80.9109
rradius 22.3886
rwrist -17.7157
rhand -21.8832 24.8251
rfingers 7.12502
rthumb 4.52157 -5.10659
lclavicle -1.98785e-015 -5.96354e-015
lhumerus -8.03864 -23.4306 88.7236
lradius 31.3547
lwrist -26.9906
lhand 2.31725 41.07
lfingers 7.12502
lthumb 27.808 69.0325
rfemur -22.8316 6.49197 25.9692
rtibia 27.9495
rfoot -12.1836 -35.1164
rtoes 20.8355
lfemur -34.5785 -1.81098 -20.5399
ltibia 25.4141
lfoot -9.26198 13.6205
ltoes -8.42896
4
root 9.42939 16.0809 -23.0576 8.92743 9.48198 -0.524227
lowerback 6.50209 -1.41966 2.15201
upperback 6.78396 -1.8084 1.20081
thorax 3.34635 -0.834514 0.0989206
lowerneck -8.87909 -1.63128 -7.86179
upperneck -2.93566 -1.44959 9.77176
head 0.71598 -0.523644 4.18006
rclavicle -7.95139e-015 -1.41137e-014
rhumerus 1.01455 40.5728 -80.6817
rradius 22.5938
rwrist -18.5814
rhand -21.7753 25.0957
rfingers 7.12502
rthumb 4.62578 -4.83382
lclavicle -7.95139e-015 -1.41137e-014
lhumerus -7.95795 -23.7943 88.7833
lradius 31.4545
lwrist -26.9082
lhand 2.21884 40.7673
lfingers 7.12502
lthumb 27.7139 68.745
rfemur -22.4726 6.68992 26.0098
rtibia 27.5429
rfoot -11.9262 -35.234
rtoes 20.0242
lfemur -34.1578 -3.76367 -19.5168
ltibia 23.3006
lfoot -9.37334 15.661
ltoes -5.72341
5
root 9.436 16.0871 -22.9817 9.00135 9.29817 -0.624478
lowerback 6.23541 -1.44384 2.21277
upperback 6.73021 -1.84582 1.12911
thorax 3.43351 -0.848794 -0.0138472
lowerneck -9.14853 -1.56955 -7.89459
upperneck -2.73737 -1.35869 9.82837
head 0.81026 -0.468936 4.20516
rclavicle 3.47873e-015 -1.05356e-014
rhumerus 1.10376 40.1459 -80.7757
rradius 22.5379
rwrist -18.2822
rhand -20.966 23.9329
rfingers 7.12502
rthumb 5.40721 -5.97815
lclavicle 3.47873e-015 -1.05356e-014
lhumerus -7.98935 -24.1401 88.8367
lradius 31.5685
lwrist -26.5185
lhand 2.1447 40.3453
lfingers 7.12502
lthumb 27.643 68.3344
rfemur -21.9789 6.62855 26.1782
rtibia 26.9954
rfoot -11.9596 -35.0565
rtoes 19.8828
lfemur -33.8022 -5.99507 -18.233
ltibia 21.4605
lfoot -9.22384 17.887
ltoes -4.34783
6
root 9.44222 16.0982 -22.9038 8.91039 9.03384 -0.834646
lowerback 5.99109 -1.43314 2.31874
upperback 6.76786 -1.83801 1.10688
thorax 3.60569 -0.838398 -0.102885
lowerneck -9.19538 -1.49285 -8.04401
upperneck -2.77348 -1.23668 10.0491
head 0.800394 -0.402481 4.30247
rclavicle 3.03147e-014 -3.97569e-016
rhumerus 1.13784 39.7188 -80.8252
rradius 22.4947
rwrist -17.6055
rhand -20.5349 22.9421
rfingers 7.12502
rthumb 5.8234 -6.95786
lclavicle 3.03147e-014 -3.97569e-016
lhumerus -7.97743 -24.3231 88.8632
lradius 31.78
lwrist -26.4969
lhand 2.28745 40.4347
lfingers 7.12502
lthumb 27.7795 68.4019
rfemur -21.265 6.47633 26.4922
rtibia 26.355
rfoot -11.8164 -34.6737
rtoes 19.9577
lfemur -33.4029 -7.88179 -16.8928
ltibia 19.9043
lfoot -9.3439 19.6311
ltoes -2.29139
7
root 9.44641 16.1136 -22.8286 8.69473 8.56112 -1.15276
lowerback 5.82714 -1.26518 2.46342
upperback 6.87768 -1.6202 1.10304
thorax 3.81324 -0.720968 -0.198669
lowerneck -9.02833 -1.48994 -7.96814
upperneck -3.03646 -1.23415 9.99963
head 0.695035 -0.40875 4.27562
rclavicle -1.44119e-014 -2.5842e-015
rhumerus 1.20773 39.9759 -80.5378
rradius 22.5826
rwrist -17.8403
rhand -20.9009 22.8403
rfingers 7.12502
rthumb 5.47005 -7.06914
lclavicle -1.44119e-014 -2.5842e-015
lhumerus -7.89069 -24.5129 88.8949
lradius 32.0899
lwrist -26.6853
lhand 2.06746 40.8251
lfingers 7.12502
lthumb 27.5691 68.826
rfemur -20.469 6.72416 26.8821
rtibia 25.7638
rfoot -11.3049 -34.5046
rtoes 18.8575
lfemur -32.8994 -9.31328 -15.5724
ltibia 18.4979
lfoot -8.9889 21.2007
ltoes 1.10577
8
root 9.45082 16.1226 -22.7568 8.51682 8.10124 -1.34495
lowerback 5.78978 -1.11126 2.49981
upperback 6.87763 -1.41571 1.03766
thorax 3.83582 -0.615844 -0.292465
lowerneck -8.87529 -1.53144 -7.80491
upperneck -3.14553 -1.30844 9.85116
head 0.642012 -0.454133 4.20075
rclavicle 2.29596e-014 -7.35503e-015
rhumerus 1.1363 39.7498 -80.6086
rradius 22.5114
rwrist -18.0965
rhand -21.4329 22.9776
rfingers 7.12502
rthumb 4.95634 -6.94442
lclavicle 2.29596e-014 -7.35503e-015
lhumerus -8.08936 -24.7726 88.947
lradius 32.4552
lwrist -26.7389
lhand 2.02204 40.7927
lfingers 7.12502
lthumb 27.5257 68.8005
rfemur -19.7558 7.01809 27.122
rtibia 25.2284
rfoot -10.6936 -34.4391
rtoes 17.6523
lfemur -32.4732 -10.9429 -14.321
ltibia 17.2609
lfoot -8.47646 23.0122
ltoes 2.7928
9
root 9.45875 16.1261 -22.681 8.46427 7.74415 -1.27139
lowerback 5.70734 -1.08942 2.24406
upperback 6.72617 -1.39258 0.947898
thorax 3.72529 -0.615804 -0.243286
lowerneck -8.74884 -1.47461 -7.92445
upperneck -2.97584 -1.24003 9.94505
head 0.66773 -0.41971 4.25143
rclavicle -9.54166e-015 2.57426e-014
rhumerus 0.760142 39.5811 -80.9874
rradius 22.4621
rwrist -18.1472
rhand -21.8854 22.4835
rfingers 7.12502
rthumb 4.51944 -7.44832
lclavicle -9.54166e-015 2.57426e-014
lhumerus -8.69744 -24.9059 89.0981
lradius 32.8137
lwrist -26.585
lhand 1.96898 41.0139
lfingers 7.12502
lthumb 27.4749 69.0298
rfemur -19.1936 7.08115 27.0851
rtibia 24.7993
rfoot -10.3572 -34.2739
rtoes 17.0698
lfemur -32.1538 -12.7561 -13.3153
ltibia 16.1338
lfoot -8.81477 24.9203
ltoes 1.38149
10
root 9.46977 16.1318 -22.5981 8.39984 7.38521 -1.21182
lowerback 5.46144 -1.07708 1.96948
upperback 6.64717 -1.38993 0.904588
thorax 3.78381 -0.625676 -0.138764
lowerneck -8.6051 -1.35179 -8.06653
upperneck -2.82101 -1.08118 10.0105
head 0.677518 -0.340838 4.30026
rclavicle 8.24956e-015 3.47873e-015
rhumerus 0.44955 39.8594 -81.0673
rradius 22.5473
rwrist -18.296
rhand -21.6295 22.2826
rfingers 7.12502
rthumb 4.76655 -7.64377
lclavicle 8.24956e-015 3.47873e-015
lhumerus -9.10651 -24.9124 89.2803
lradius 33.07
lwrist -26.395
lhand 1.70617 41.416
lfingers 7.12502
lthumb 27.2236 69.4716
rfemur -18.6578 7.16879 27.0545
rtibia 24.5336
rfoot -10.5559 -34.0975
rtoes 17.2438
lfemur -31.7807 -14.3644 -12.404
ltibia 15.0638
lfoot -9.68174 26.2446
ltoes 3.59912
11
root 9.48274 16.1385 -22.5159 8.21637 7.09927 -1.07007
lowerback 5.30603 -1.05732 1.68496
upperback 6.70754 -1.37407 0.807064
thorax 3.9376 -0.626477 -0.0843168
lowerneck -8.66521 -1.26092 -8.01784
upperneck -2.72069 -0.965618 9.91709
head 0.704557 -0.282475 4.26707
rclavicle -1.29707e-014 -5.36719e-015
rhumerus 0.445854 39.9239 -80.9983
rradius 22.5577
rwrist -18.3492
rhand -21.0369 22.476
rfingers 7.12502
rthumb 5.33874 -7.43673
lclavicle -1.29707e-014 -5.36719e-015
lhumerus -9.12157 -25.0593 89.321
lradius 33.2328
lwrist -26.0656
lhand 1.30348 41.1787
lfingers 7.12502
lthumb 26.8383 69.294
rfemur -18.0154 7.16836 26.9411
rtibia 24.3605
rfoot -11.3231 -33.8848
rtoes 18.4505
lfemur -31.3292 -15.6858 -11.826
ltibia 14.182
lfoot -9.55488 26.8784
ltoes 5.40922
12
root 9.49264 16.1419 -22.4385 8.1376 6.75511 -0.991673
lowerback 5.21032 -1.02718 1.39562
upperback 6.66746 -1.34083 0.718595
thorax 3.95293 -0.6208 -0.016042
lowerneck -8.83161 -1.14666 -7.91651
upperneck -2.51495 -0.823046 9.78968
head 0.776718 -0.208164 4.21559
rclavicle 2.40032e-014 -4.42296e-015
rhumerus 0.377622 39.9831 -81.1468
rradius 22.4694
rwrist -18.3745
rhand -21.0435 22.4507
rfingers 7.12502
rthumb 5.33233 -7.46219
lclavicle 2.40032e-014 -4.42296e-015
lhumerus -9.19235 -25.2493 89.3232
lradius 33.2756
lwrist -25.8008
lhand 0.468795 40.6238
lfingers 7.12502
lthumb 26.0393 68.8593
rfemur -17.5359 7.1798 26.8895
rtibia 24.1847
rfoot -11.5519 -33.7083
rtoes 18.505
lfemur -31.0794 -16.4392 -11.4303
ltibia 13.5832
lfoot -8.45473 27.2474
ltoes 2.18024
13
root 9.50159 16.1413 -22.3577 8.19257 6.40272 -1.25189
lowerback 4.95976 -0.999239 1.44152
upperback 6.49405 -1.30661 0.695916
thorax 3.90978 -0.602552 -0.0687594
lowerneck -8.85161 -1.03671 -7.79036
upperneck -2.2061 -0.704979 9.71762
head 0.858983 -0.148541 4.17619
rclavicle 1.95679e-014 -6.70898e-015
rhumerus 0.0866247 40.1858 -81.4784
rradius 22.4194
rwrist -18.3071
rhand -21.3812 22.4307
rfingers 7.12502
rthumb 5.00625 -7.49013
lclavicle 1.95679e-014 -6.70898e-015
lhumerus -9.47337 -25.3763 89.3568
lradius 33.2943
lwrist -25.8936
lhand 0.510652 40.428
lfingers 7.12502
lthumb 26.0794 68.6576
rfemur -17.2873 7.32127 27.1869
rtibia 24.0832
rfoot -11.1065 -33.7262
rtoes 16.7643
lfemur -30.998 -16.7672 -10.8049
ltibia 13.1664
lfoot -7.97954 27.3769
ltoes 1.1718
14
root 9.51321 16.1429 -22.2741 8.09076 6.15604 -1.39583
lowerback 4.82709 -1.01756 1.47636
upperback 6.39264 -1.33043 0.612193
thorax 3.87455 -0.611797 -0.175781
lowerneck -8.78024 -0.951046 -7.68999
upperneck -2.05181 -0.62136 9.24222
head 0.978162 -0.120443 4.45225
rclavicle 1.61637e-014 3.40419e-015
rhumerus -0.236185 40.4478 -81.7961
rradius 22.5056
rwrist -18.171
rhand -21.4985 22.1292
rfingers 7.12502
rthumb 4.89298 -7.7943
lclavicle 1.61637e-014 3.40419e-015
lhumerus -9.69497 -25.6377 89.3261
lradius 33.3877
lwrist -25.7457
lhand 1.34102 40.6603
lfingers 7.12502
lthumb 26.8742 68.7701
rfemur -16.8411 7.33503 27.3859
rtibia 24.0238
rfoot -10.9683 -33.7951
rtoes 15.3252
lfemur -30.7561 -17.145 -10.4345
ltibia 13.084
lfoot -9.1976 27.0598
ltoes 5.78719
